<?xml version="1.0" encoding="utf-8"?>
<!-- Generator: Adobe Illustrator 27.0.0, SVG Export Plug-In . SVG Version: 6.00 Build 0)  -->
<svg version="1.1" id="Layer_1" xmlns="http://www.w3.org/2000/svg" xmlns:xlink="http://www.w3.org/1999/xlink" x="0px" y="0px"
	 viewBox="0 0 512 512" style="enable-background:new 0 0 512 512;" xml:space="preserve">
<style type="text/css">
	.st0{fill:#003A63;}
</style>
<g id="XMLID_1_">
	<path id="XMLID_3_" class="st0" d="M9.98,373.69v83.74C9.98,504.28,38.6,512,62.44,512c35.35,0,51.76-23.43,51.76-54.99v-83.32
		H90.78v86.13c0,10.94-3.51,31.14-28.34,30.72c-22.58-0.42-26.65-21.18-26.65-34.51v-82.48H9.98V373.69z"/>
	<path id="XMLID_4_" class="st0" d="M211.83,379.3c0,0-14.87-7.43-31.84-7.43c-21.18,0-47.69,10.94-47.69,40.54
		c0,20.62,15.15,30.3,25.39,35.35c5.47,2.67,12.2,5.61,17.53,8.56c2.81,1.54,14.03,5.33,14.03,17.53
		c0,13.05-14.17,17.39-20.62,17.39c-22.86,0-38.29-10.38-38.29-10.38l2.38,26.09c0,0,9.26,4.77,37.17,4.77
		c26.65-0.14,45.73-17.11,45.73-40.68c0-18.1-12.34-28.9-22.86-33.95c-8.28-4.07-13.19-6.31-20.34-9.68
		c-7.15-3.37-14.73-9.26-14.73-18.38c0-9.82,8.98-16.83,22.16-16.83c19.36,0,27.21,8.7,31.84,11.5V379.3H211.83z"/>
	<path id="XMLID_8_" class="st0" d="M371.89,466.97l18.66-53.02l16.69,53.02H371.89z M259.81,466.97l18.66-53.02l16.55,53.02H259.81
		z M402.19,373.55h-28.05l4.49,11.36l-43.63,116.43l-44.89-127.79h-28.05l4.49,11.36l-46.43,124.14h25.39l8.14-23.57h47.97l8,23.57
		h47.97l8.14-23.57h47.97l8.14,23.57h28.05L402.19,373.55z"/>
	<path id="XMLID_9_" class="st0" d="M8.58,221.35l1.12,42.36c0,0,10.38-7.72,22.02-7.72s24.69,8.42,24.69,8.42l103.94,60.88
		l8.84-38.29L56.41,221.07c0,0-13.05-8.28-24.69-8.28C20.08,212.66,8.58,221.35,8.58,221.35"/>
	<path id="XMLID_10_" class="st0" d="M8.58,166.08l1.12,42.36c0,0,10.38-7.72,22.02-7.72s24.69,8.42,24.69,8.42l115.16,67.33
		l8.84-38.29l-124-72.52c0,0-13.05-8.28-24.69-8.28C20.08,157.39,8.58,166.08,8.58,166.08"/>
	<path id="XMLID_11_" class="st0" d="M8.58,110.82l1.12,42.36c0,0,10.38-7.72,22.02-7.72s24.69,8.28,24.69,8.28L182.8,227.8
		l8.84-38.29L56.41,110.4c0,0-13.05-8.28-24.69-8.28C20.08,102.12,8.58,110.82,8.58,110.82"/>
	<path id="XMLID_12_" class="st0" d="M225.3,43.34l11.64,49.94l158.37,92.58c0,0,12.48,8.28,24.69,8.28s23.15-8.7,23.15-8.7
		l-1.12-42.36c0,0-9.96,7.72-22.02,7.72s-24.69-8.42-24.69-8.42l-122.6-71.54l-8.42-32.12c0-1.4,1.26-1.96,1.68-2.1l20.76-6.45
		c2.81,0,4.35,2.38,4.35,4.49l1.12,2.24c0.7,0.42,3.93-1.12,4.07-1.26V23c0-8.42-6.59-15.85-15.85-15.85h-20.76
		c0,0-3.09-7.15-11.78-7.15h-39.42c-10.38,0-12.91,9.82-12.91,9.82L168.21,120.5L56.41,54.99c0,0-12.06-8.28-24.83-8.28
		c-12.62,0-23.15,8.7-23.15,8.7l1.12,42.36c0,0,9.4-7.72,22.02-7.72s24.83,8.42,24.83,8.42l137.61,80.52L225.3,43.34z"/>
	<path id="XMLID_13_" class="st0" d="M240.03,107.03l11.5,50.22l143.64,84.02c0,0,12.91,8.42,24.69,8.42
		c11.78,0,23.15-8.7,23.15-8.7l-1.26-42.36c0,0-9.26,7.72-22.02,7.72c-12.76,0-24.69-8.28-24.69-8.28L240.03,107.03z"/>
	<path id="XMLID_14_" class="st0" d="M254.76,170.99l11.5,50.22l128.91,75.47c0,0,12.91,8.42,24.69,8.42
		c11.78,0,23.15-8.7,23.15-8.7l-1.12-42.36c0,0-9.26,7.72-22.02,7.72c-12.76,0-24.69-8.28-24.69-8.28L254.76,170.99z"/>
	<path id="XMLID_15_" class="st0" d="M269.49,234.96l11.5,50.08l114.18,66.91c0,0,12.91,8.42,24.69,8.42
		c11.78,0,23.15-8.7,23.15-8.7l-1.12-42.36c0,0-9.26,7.72-22.02,7.72c-12.76,0-24.69-8.42-24.69-8.42L269.49,234.96z"/>
	<path id="XMLID_20_" class="st0" d="M475.83,365.83c15.43,0,27.63,12.48,27.63,28.2c0,15.85-12.2,28.34-27.77,28.34
		c-15.43,0-27.91-12.34-27.91-28.34C447.77,378.32,460.26,365.83,475.83,365.83L475.83,365.83z M475.69,370.18
		c-12.34,0-22.58,10.66-22.58,23.85c0,13.33,10.1,23.85,22.72,23.85c12.48,0.14,22.58-10.52,22.58-23.85
		C498.27,380.84,488.31,370.18,475.69,370.18L475.69,370.18z M470.36,410.44h-5.05v-31.42c2.67-0.42,5.19-0.7,8.98-0.7
		c4.77,0,7.86,0.98,9.82,2.38c1.82,1.4,2.95,3.51,2.95,6.45c0,4.21-2.81,6.59-6.17,7.72v0.28c2.81,0.56,4.63,2.95,5.19,7.72
		c0.7,4.91,1.54,6.73,1.96,7.72h-5.19c-0.7-0.98-1.54-3.93-2.1-8c-0.7-4.07-2.81-5.47-6.73-5.47h-3.51v13.33H470.36z M470.36,393.05
		h3.65c4.21,0,7.72-1.54,7.72-5.33c0-2.81-1.96-5.47-7.72-5.47c-1.68,0-2.81,0.14-3.65,0.28V393.05z"/>
</g>
</svg>
